<svg xmlns="http://www.w3.org/2000/svg" viewBox="0 0 540 960" width="540" height="960">
<defs><marker id="a" markerWidth="10" markerHeight="10" refX="8" refY="3" orient="auto"><path d="M0 0L0 6L9 3z" fill="#FF9BA6"/></marker></defs>
<rect width="540" height="960" fill="#25131A"/><rect x="34" y="78" width="472" height="790" rx="28" fill="none" stroke="#F7E7C9" stroke-opacity=".14"/>
<text x="34" y="48" font-family="Arial,sans-serif" font-size="17" fill="#F7E7C9" opacity=".72">ST-044 · 1–2s · contradiction_resolution</text>
<text x="270" y="132" text-anchor="middle" font-family="Arial,sans-serif" font-size="34" font-weight="800" fill="#F7E7C9">THE EXPECTATION</text><rect x="58" y="235" width="424" height="430" rx="24" fill="#F7E7C9" opacity=".035"/>
<g data-entity-id="ENT-target" data-state="present-unresolved" data-operation="transfer" data-visible-entities="ENT-hero,ENT-trigger,ENT-target" data-affected-entities="ENT-target" data-proof-visible="false" data-limitation=""><rect x="82" y="357" width="58" height="92" rx="10" fill="#75C9FF" opacity="0.18" stroke="#75C9FF" stroke-width="4"/><rect x="107" y="350" width="58" height="92" rx="10" fill="#75C9FF" opacity="0.28" stroke="#75C9FF" stroke-width="4"/><rect x="132" y="343" width="58" height="92" rx="10" fill="#75C9FF" opacity="0.38" stroke="#75C9FF" stroke-width="4"/><rect x="157" y="336" width="58" height="92" rx="10" fill="#75C9FF" opacity="0.48000000000000004" stroke="#75C9FF" stroke-width="4"/><text x="150" y="505" text-anchor="middle" font-family="Arial,sans-serif" font-size="19" font-weight="700" fill="#F7E7C9">moving cards</text><rect x="339" y="370" width="132" height="100" rx="18" fill="#FF9BA6" opacity=".24" stroke="#FF9BA6" stroke-width="6"/><path d="M363 405h84m-84 28h60" stroke="#F7E7C9" stroke-width="7" opacity=".65"/><text x="405" y="520" text-anchor="middle" font-family="Arial,sans-serif" font-size="19" font-weight="700" fill="#F7E7C9">closed decision</text><path d="M270 330v200m-110-135h220m-190 0l-35 90h70zm160 0l-35 90h70z" fill="none" stroke="#F7E7C9" stroke-width="8" opacity=".55"/><circle cx="460" cy="325" r="25" fill="none" stroke="#FF9BA6" stroke-width="6"/><text x="460" y="333" text-anchor="middle" font-family="Arial" font-size="24" font-weight="800" fill="#FF9BA6">?</text></g>
<rect x="58" y="700" width="424" height="72" rx="18" fill="#F7E7C9" opacity=".08"/>
<text x="76" y="729" font-family="Arial,sans-serif" font-size="16" fill="#F7E7C9" opacity=".82">BEFORE · target = unoriented</text>
<text x="76" y="757" font-family="Arial,sans-serif" font-size="16" font-weight="700" fill="#FF9BA6">AFTER · target = present-unresolved</text>
<rect x="58" y="795" width="424" height="82" rx="18" fill="#F7E7C9" opacity=".09"/><text x="76" y="815" font-family="Arial,sans-serif" font-size="13" fill="#F7E7C9" opacity=".80">ACTION · locates the closed decision</text><text x="76" y="833" font-family="Arial,sans-serif" font-size="13" fill="#F7E7C9" opacity=".80">CUT · Reveal actor, target, and spatial</text><text x="76" y="851" font-family="Arial,sans-serif" font-size="13" fill="#F7E7C9" opacity=".80">relationship.</text>
<text x="270" y="923" text-anchor="middle" font-family="Arial,sans-serif" font-size="14" fill="#F7E7C9" opacity=".48">ORIGINAL LOCAL PREVIS · EXTERNAL PROVIDER NOT RUN</text>
</svg>