<svg xmlns="http://www.w3.org/2000/svg" viewBox="0 0 540 960" width="540" height="960">
<defs><marker id="a" markerWidth="10" markerHeight="10" refX="8" refY="3" orient="auto"><path d="M0 0L0 6L9 3z" fill="#B6A1FF"/></marker></defs>
<rect width="540" height="960" fill="#16112A"/><rect x="34" y="78" width="472" height="790" rx="28" fill="none" stroke="#FFE078" stroke-opacity=".14"/>
<text x="34" y="48" font-family="Arial,sans-serif" font-size="17" fill="#FFE078" opacity=".72">ST-042 · 0–1s · contradiction_resolution</text>
<text x="270" y="132" text-anchor="middle" font-family="Arial,sans-serif" font-size="34" font-weight="800" fill="#FFE078">BOTH LOOK TRUE</text><rect x="58" y="235" width="424" height="430" rx="24" fill="#FFE078" opacity=".035"/>
<g data-entity-id="ENT-target" data-state="unoriented" data-operation="transfer" data-visible-entities="ENT-hero,ENT-trigger" data-affected-entities="ENT-trigger" data-proof-visible="false" data-limitation=""><circle cx="150" cy="405" r="55" fill="none" stroke="#FF758F" stroke-width="9"/><path d="M150 405v-30m0 30l28 18" stroke="#FFE078" stroke-width="8" stroke-linecap="round"/><text x="150" y="505" text-anchor="middle" font-family="Arial,sans-serif" font-size="19" font-weight="700" fill="#FFE078">stopwatch</text><path d="M327 458Q405 352 483 458" fill="none" stroke="#B6A1FF" stroke-width="11"/><circle cx="327" cy="458" r="14" fill="#FFE078"/><circle cx="483" cy="458" r="14" fill="#B6A1FF"/><text x="405" y="520" text-anchor="middle" font-family="Arial,sans-serif" font-size="19" font-weight="700" fill="#FFE078">simplified route</text><path d="M270 330v200m-110-135h220m-190 0l-35 90h70zm160 0l-35 90h70z" fill="none" stroke="#FFE078" stroke-width="8" opacity=".55"/></g>
<rect x="58" y="700" width="424" height="72" rx="18" fill="#FFE078" opacity=".08"/>
<text x="76" y="729" font-family="Arial,sans-serif" font-size="16" fill="#FFE078" opacity=".82">BEFORE · target = absent</text>
<text x="76" y="757" font-family="Arial,sans-serif" font-size="16" font-weight="700" fill="#B6A1FF">AFTER · target = unoriented</text>
<rect x="58" y="795" width="424" height="82" rx="18" fill="#FFE078" opacity=".09"/><text x="76" y="815" font-family="Arial,sans-serif" font-size="13" fill="#FFE078" opacity=".80">ACTION · notices the stopwatch</text><text x="76" y="833" font-family="Arial,sans-serif" font-size="13" fill="#FFE078" opacity=".80">CUT · Open a precise question with a visible changed</text><text x="76" y="851" font-family="Arial,sans-serif" font-size="13" fill="#FFE078" opacity=".80">object.</text>
<text x="270" y="923" text-anchor="middle" font-family="Arial,sans-serif" font-size="14" fill="#FFE078" opacity=".48">ORIGINAL LOCAL PREVIS · EXTERNAL PROVIDER NOT RUN</text>
</svg>