<svg xmlns="http://www.w3.org/2000/svg" viewBox="0 0 540 960" width="540" height="960">
<defs><marker id="a" markerWidth="10" markerHeight="10" refX="8" refY="3" orient="auto"><path d="M0 0L0 6L9 3z" fill="#B6A1FF"/></marker></defs>
<rect width="540" height="960" fill="#16112A"/><rect x="34" y="78" width="472" height="790" rx="28" fill="none" stroke="#FFE078" stroke-opacity=".14"/>
<text x="34" y="48" font-family="Arial,sans-serif" font-size="17" fill="#FFE078" opacity=".72">ST-012 · 2–3s · diagnostic_mystery</text>
<text x="270" y="132" text-anchor="middle" font-family="Arial,sans-serif" font-size="34" font-weight="800" fill="#FFE078">RULE OUT THE OBVIOUS</text><rect x="58" y="235" width="424" height="430" rx="24" fill="#FFE078" opacity=".035"/>
<g data-entity-id="ENT-target" data-state="blocked" data-operation="inspect" data-visible-entities="ENT-hero,ENT-trigger,ENT-target,ENT-obstacle" data-affected-entities="ENT-obstacle,ENT-target" data-proof-visible="false" data-limitation=""><circle cx="105" cy="415" r="34" fill="#B6A1FF"/><path d="M105 453v116m0-62l-48 118m48-118l56 118" stroke="#FFE078" stroke-width="13" stroke-linecap="round"/><path d="M105 477l-64 22m64-22l58 56" stroke="#FFE078" stroke-width="13" stroke-linecap="round"/><circle cx="230" cy="350" r="24" fill="#B6A1FF" opacity="0.35"/><circle cx="285" cy="435" r="24" fill="#FF758F" opacity="0.53"/><circle cx="340" cy="350" r="24" fill="#B6A1FF" opacity="0.71"/><rect x="339" y="370" width="132" height="100" rx="18" fill="#B6A1FF" opacity=".24" stroke="#B6A1FF" stroke-width="6"/><path d="M363 405h84m-84 28h60" stroke="#FFE078" stroke-width="7" opacity=".65"/><text x="405" y="520" text-anchor="middle" font-family="Arial,sans-serif" font-size="19" font-weight="700" fill="#FFE078">restored trigger</text><circle cx="460" cy="325" r="25" fill="#FF758F"/><path d="M450 315l20 20m0-20l-20 20" stroke="#FFE078" stroke-width="7"/></g>
<rect x="58" y="700" width="424" height="72" rx="18" fill="#FFE078" opacity=".08"/>
<text x="76" y="729" font-family="Arial,sans-serif" font-size="16" fill="#FFE078" opacity=".82">BEFORE · target = present-unresolved</text>
<text x="76" y="757" font-family="Arial,sans-serif" font-size="16" font-weight="700" fill="#B6A1FF">AFTER · target = blocked</text>
<rect x="58" y="795" width="424" height="82" rx="18" fill="#FFE078" opacity=".09"/><text x="76" y="815" font-family="Arial,sans-serif" font-size="13" fill="#FFE078" opacity=".80">ACTION · sees the restored trigger blocked</text><text x="76" y="833" font-family="Arial,sans-serif" font-size="13" fill="#FFE078" opacity=".80">CUT · Make resistance and consequence inspectable.</text>
<text x="270" y="923" text-anchor="middle" font-family="Arial,sans-serif" font-size="14" fill="#FFE078" opacity=".48">ORIGINAL LOCAL PREVIS · EXTERNAL PROVIDER NOT RUN</text>
</svg>