<svg xmlns="http://www.w3.org/2000/svg" viewBox="0 0 588 1132" width="588" height="1132">
<rect width="588" height="1132" fill="#231218"/>
<text x="36" y="52" font-family="Arial,sans-serif" font-size="28" font-weight="800" fill="#f9e6c8">SF-022 · Missing Is Not Zero</text>
<text x="36" y="84" font-family="Arial,sans-serif" font-size="16" fill="#f9e6c8" opacity=".62">7 seconds · one review frame per second · provider NOT RUN</text>
<rect x="36" y="116" width="160" height="284" rx="18" fill="#f9e6c8" opacity=".08" stroke="#ff8f9d" stroke-opacity=".5"/><image href="frames/SF-022-F01.svg" x="36" y="116" width="160" height="284" preserveAspectRatio="xMidYMid meet"/><rect x="220" y="116" width="160" height="284" rx="18" fill="#f9e6c8" opacity=".08" stroke="#ff8f9d" stroke-opacity=".5"/><image href="frames/SF-022-F02.svg" x="220" y="116" width="160" height="284" preserveAspectRatio="xMidYMid meet"/><rect x="404" y="116" width="160" height="284" rx="18" fill="#f9e6c8" opacity=".08" stroke="#ff8f9d" stroke-opacity=".5"/><image href="frames/SF-022-F03.svg" x="404" y="116" width="160" height="284" preserveAspectRatio="xMidYMid meet"/><rect x="36" y="450" width="160" height="284" rx="18" fill="#f9e6c8" opacity=".08" stroke="#ff8f9d" stroke-opacity=".5"/><image href="frames/SF-022-F04.svg" x="36" y="450" width="160" height="284" preserveAspectRatio="xMidYMid meet"/><rect x="220" y="450" width="160" height="284" rx="18" fill="#f9e6c8" opacity=".08" stroke="#ff8f9d" stroke-opacity=".5"/><image href="frames/SF-022-F05.svg" x="220" y="450" width="160" height="284" preserveAspectRatio="xMidYMid meet"/><rect x="404" y="450" width="160" height="284" rx="18" fill="#f9e6c8" opacity=".08" stroke="#ff8f9d" stroke-opacity=".5"/><image href="frames/SF-022-F06.svg" x="404" y="450" width="160" height="284" preserveAspectRatio="xMidYMid meet"/><rect x="36" y="784" width="160" height="284" rx="18" fill="#f9e6c8" opacity=".08" stroke="#ff8f9d" stroke-opacity=".5"/><image href="frames/SF-022-F07.svg" x="36" y="784" width="160" height="284" preserveAspectRatio="xMidYMid meet"/>
</svg>