<svg xmlns="http://www.w3.org/2000/svg" viewBox="0 0 540 960" width="540" height="960">
<defs><marker id="a" markerWidth="10" markerHeight="10" refX="8" refY="3" orient="auto"><path d="M0 0L0 6L9 3z" fill="#B6A1FF"/></marker></defs>
<rect width="540" height="960" fill="#16112A"/><rect x="34" y="78" width="472" height="790" rx="28" fill="none" stroke="#FFE078" stroke-opacity=".14"/>
<text x="34" y="48" font-family="Arial,sans-serif" font-size="17" fill="#FFE078" opacity=".72">ST-032 · 0–1s · before_after_transformation</text>
<text x="270" y="132" text-anchor="middle" font-family="Arial,sans-serif" font-size="34" font-weight="800" fill="#FFE078">READ THE CONTRAST</text><rect x="58" y="235" width="424" height="430" rx="24" fill="#FFE078" opacity=".035"/>
<g data-entity-id="ENT-target" data-state="unoriented" data-operation="route" data-visible-entities="ENT-hero,ENT-trigger" data-affected-entities="ENT-trigger" data-proof-visible="false" data-limitation=""><path d="M270 280v320" stroke="#FFE078" stroke-width="6" opacity=".3"/><text x="150" y="300" text-anchor="middle" fill="#FF758F" font-family="Arial" font-size="20" font-weight="700">BEFORE</text><text x="390" y="300" text-anchor="middle" fill="#B6A1FF" font-family="Arial" font-size="20" font-weight="700">AFTER</text><rect x="82" y="382" width="58" height="92" rx="10" fill="#FF758F" opacity="0.18" stroke="#FF758F" stroke-width="4"/><rect x="107" y="375" width="58" height="92" rx="10" fill="#FF758F" opacity="0.28" stroke="#FF758F" stroke-width="4"/><rect x="132" y="368" width="58" height="92" rx="10" fill="#FF758F" opacity="0.38" stroke="#FF758F" stroke-width="4"/><rect x="157" y="361" width="58" height="92" rx="10" fill="#FF758F" opacity="0.48000000000000004" stroke="#FF758F" stroke-width="4"/><text x="150" y="530" text-anchor="middle" font-family="Arial,sans-serif" font-size="19" font-weight="700" fill="#FFE078">list</text></g>
<rect x="58" y="700" width="424" height="72" rx="18" fill="#FFE078" opacity=".08"/>
<text x="76" y="729" font-family="Arial,sans-serif" font-size="16" fill="#FFE078" opacity=".82">BEFORE · target = absent</text>
<text x="76" y="757" font-family="Arial,sans-serif" font-size="16" font-weight="700" fill="#B6A1FF">AFTER · target = unoriented</text>
<rect x="58" y="795" width="424" height="82" rx="18" fill="#FFE078" opacity=".09"/><text x="76" y="815" font-family="Arial,sans-serif" font-size="13" fill="#FFE078" opacity=".80">ACTION · notices the list</text><text x="76" y="833" font-family="Arial,sans-serif" font-size="13" fill="#FFE078" opacity=".80">CUT · Open a precise question with a visible changed</text><text x="76" y="851" font-family="Arial,sans-serif" font-size="13" fill="#FFE078" opacity=".80">object.</text>
<text x="270" y="923" text-anchor="middle" font-family="Arial,sans-serif" font-size="14" fill="#FFE078" opacity=".48">ORIGINAL LOCAL PREVIS · EXTERNAL PROVIDER NOT RUN</text>
</svg>