<svg xmlns="http://www.w3.org/2000/svg" viewBox="0 0 540 960" width="540" height="960">
<defs><marker id="a" markerWidth="10" markerHeight="10" refX="8" refY="3" orient="auto"><path d="M0 0L0 6L9 3z" fill="#B6A1FF"/></marker></defs>
<rect width="540" height="960" fill="#16112A"/><rect x="34" y="78" width="472" height="790" rx="28" fill="none" stroke="#FFE078" stroke-opacity=".14"/>
<text x="34" y="48" font-family="Arial,sans-serif" font-size="17" fill="#FFE078" opacity=".72">ST-032 · 5–6s · before_after_transformation</text>
<text x="270" y="132" text-anchor="middle" font-family="Arial,sans-serif" font-size="34" font-weight="800" fill="#FFE078">AFTER—WITH A LIMIT</text><rect x="58" y="235" width="424" height="430" rx="24" fill="#FFE078" opacity=".035"/>
<g data-entity-id="ENT-target" data-state="resolved-with-boundary" data-operation="route" data-visible-entities="ENT-hero,ENT-trigger,ENT-target,ENT-proof" data-affected-entities="ENT-target" data-proof-visible="true" data-limitation="A map visualizes lineage; it does not verify truth."><path d="M270 280v320" stroke="#FFE078" stroke-width="6" opacity=".3"/><text x="150" y="300" text-anchor="middle" fill="#FF758F" font-family="Arial" font-size="20" font-weight="700">BEFORE</text><text x="390" y="300" text-anchor="middle" fill="#B6A1FF" font-family="Arial" font-size="20" font-weight="700">AFTER</text><rect x="82" y="382" width="58" height="92" rx="10" fill="#FF758F" opacity="0.18" stroke="#FF758F" stroke-width="4"/><rect x="107" y="375" width="58" height="92" rx="10" fill="#FF758F" opacity="0.28" stroke="#FF758F" stroke-width="4"/><rect x="132" y="368" width="58" height="92" rx="10" fill="#FF758F" opacity="0.38" stroke="#FF758F" stroke-width="4"/><rect x="157" y="361" width="58" height="92" rx="10" fill="#FF758F" opacity="0.48000000000000004" stroke="#FF758F" stroke-width="4"/><text x="150" y="530" text-anchor="middle" font-family="Arial,sans-serif" font-size="19" font-weight="700" fill="#FFE078">list</text><circle cx="378" cy="420" r="46" fill="none" stroke="#B6A1FF" stroke-width="9"/><path d="M410 452l48 48" stroke="#B6A1FF" stroke-width="12" stroke-linecap="round"/><text x="390" y="530" text-anchor="middle" font-family="Arial,sans-serif" font-size="19" font-weight="700" fill="#FFE078">source map</text><path d="M215 470h105" stroke="#B6A1FF" stroke-width="10" marker-end="url(#a)"/><circle cx="208" cy="545" r="19" fill="#FFE078"/><circle cx="332" cy="545" r="19" fill="#B6A1FF"/><path d="M230 545C270 475 288 615 318 545" fill="none" stroke="#B6A1FF" stroke-width="9" marker-end="url(#a)"/><circle cx="460" cy="325" r="25" fill="#B6A1FF"/><path d="M448 325l9 11 18-24" fill="none" stroke="#FFE078" stroke-width="7"/><rect x="336" y="450" width="132" height="100" rx="18" fill="#B6A1FF" opacity=".24" stroke="#B6A1FF" stroke-width="6"/><path d="M360 485h84m-84 28h60" stroke="#FFE078" stroke-width="7" opacity=".65"/><text x="402" y="600" text-anchor="middle" font-family="Arial,sans-serif" font-size="19" font-weight="700" fill="#FFE078">graph links</text></g><g data-limit-text-color="#16112A" data-limit-panel-color="#B6A1FF"><rect x="66" y="598" width="408" height="66" rx="14" fill="#B6A1FF" opacity=".96"/><text x="82" y="617" font-family="Arial,sans-serif" font-size="13" font-weight="800" fill="#16112A">LIMIT</text><text x="270" y="628" text-anchor="middle" font-family="Arial,sans-serif" font-size="14" font-weight="700" fill="#16112A">A map visualizes lineage; it does not verify</text><text x="270" y="650" text-anchor="middle" font-family="Arial,sans-serif" font-size="14" font-weight="700" fill="#16112A">truth.</text></g>
<rect x="58" y="700" width="424" height="72" rx="18" fill="#FFE078" opacity=".08"/>
<text x="76" y="729" font-family="Arial,sans-serif" font-size="16" fill="#FFE078" opacity=".82">BEFORE · target = changed-pending-review</text>
<text x="76" y="757" font-family="Arial,sans-serif" font-size="16" font-weight="700" fill="#B6A1FF">AFTER · target = resolved-with-boundary</text>
<rect x="58" y="795" width="424" height="82" rx="18" fill="#FFE078" opacity=".09"/><text x="76" y="815" font-family="Arial,sans-serif" font-size="13" fill="#FFE078" opacity=".80">ACTION · confirms the changed source map</text><text x="76" y="833" font-family="Arial,sans-serif" font-size="13" fill="#FFE078" opacity=".80">CUT · Close the opening question with the changed</text><text x="76" y="851" font-family="Arial,sans-serif" font-size="13" fill="#FFE078" opacity=".80">target.</text>
<text x="270" y="923" text-anchor="middle" font-family="Arial,sans-serif" font-size="14" fill="#FFE078" opacity=".48">ORIGINAL LOCAL PREVIS · EXTERNAL PROVIDER NOT RUN</text>
</svg>