<svg xmlns="http://www.w3.org/2000/svg" viewBox="0 0 588 798" width="588" height="798">
<rect width="588" height="798" fill="#102019"/>
<text x="36" y="52" font-family="Arial,sans-serif" font-size="28" font-weight="800" fill="#f8d49d">SF-021 · Stale Metric</text>
<text x="36" y="84" font-family="Arial,sans-serif" font-size="16" fill="#f8d49d" opacity=".62">6 seconds · one review frame per second · provider NOT RUN</text>
<rect x="36" y="116" width="160" height="284" rx="18" fill="#f8d49d" opacity=".08" stroke="#85d18a" stroke-opacity=".5"/><image href="frames/SF-021-F01.svg" x="36" y="116" width="160" height="284" preserveAspectRatio="xMidYMid meet"/><rect x="220" y="116" width="160" height="284" rx="18" fill="#f8d49d" opacity=".08" stroke="#85d18a" stroke-opacity=".5"/><image href="frames/SF-021-F02.svg" x="220" y="116" width="160" height="284" preserveAspectRatio="xMidYMid meet"/><rect x="404" y="116" width="160" height="284" rx="18" fill="#f8d49d" opacity=".08" stroke="#85d18a" stroke-opacity=".5"/><image href="frames/SF-021-F03.svg" x="404" y="116" width="160" height="284" preserveAspectRatio="xMidYMid meet"/><rect x="36" y="450" width="160" height="284" rx="18" fill="#f8d49d" opacity=".08" stroke="#85d18a" stroke-opacity=".5"/><image href="frames/SF-021-F04.svg" x="36" y="450" width="160" height="284" preserveAspectRatio="xMidYMid meet"/><rect x="220" y="450" width="160" height="284" rx="18" fill="#f8d49d" opacity=".08" stroke="#85d18a" stroke-opacity=".5"/><image href="frames/SF-021-F05.svg" x="220" y="450" width="160" height="284" preserveAspectRatio="xMidYMid meet"/><rect x="404" y="450" width="160" height="284" rx="18" fill="#f8d49d" opacity=".08" stroke="#85d18a" stroke-opacity=".5"/><image href="frames/SF-021-F06.svg" x="404" y="450" width="160" height="284" preserveAspectRatio="xMidYMid meet"/>
</svg>