<svg xmlns="http://www.w3.org/2000/svg" viewBox="0 0 540 960" width="540" height="960">
<defs><marker id="a" markerWidth="10" markerHeight="10" refX="8" refY="3" orient="auto"><path d="M0 0L0 6L9 3z" fill="#FF9BA6"/></marker></defs>
<rect width="540" height="960" fill="#25131A"/><rect x="34" y="78" width="472" height="790" rx="28" fill="none" stroke="#F7E7C9" stroke-opacity=".14"/>
<text x="34" y="48" font-family="Arial,sans-serif" font-size="17" fill="#F7E7C9" opacity=".72">ST-039 · 4–5s · proof_reveal</text>
<text x="270" y="132" text-anchor="middle" font-family="Arial,sans-serif" font-size="34" font-weight="800" fill="#F7E7C9">INSPECT THE ARTIFACT</text><rect x="58" y="235" width="424" height="430" rx="24" fill="#F7E7C9" opacity=".035"/>
<g data-entity-id="ENT-target" data-state="changed-pending-review" data-operation="inspect" data-visible-entities="ENT-hero,ENT-trigger,ENT-target,ENT-proof" data-affected-entities="ENT-proof,ENT-target" data-proof-visible="true" data-limitation=""><circle cx="85" cy="470" r="34" fill="#FF9BA6"/><path d="M85 508v116m0-62l-48 118m48-118l56 118" stroke="#F7E7C9" stroke-width="13" stroke-linecap="round"/><path d="M85 532l-54-15m54 15l68-35" stroke="#F7E7C9" stroke-width="13" stroke-linecap="round"/><path d="M192 423Q270 317 348 423" fill="none" stroke="#FF9BA6" stroke-width="11"/><circle cx="192" cy="423" r="14" fill="#F7E7C9"/><circle cx="348" cy="423" r="14" fill="#FF9BA6"/><text x="270" y="485" text-anchor="middle" font-family="Arial,sans-serif" font-size="19" font-weight="700" fill="#F7E7C9">claim map</text><rect x="252.0" y="300" width="36" height="190" rx="18" fill="#75C9FF" opacity=".88"/><circle cx="258" cy="545" r="46" fill="none" stroke="#FF9BA6" stroke-width="9"/><path d="M290 577l48 48" stroke="#FF9BA6" stroke-width="12" stroke-linecap="round"/><text x="270" y="655" text-anchor="middle" font-family="Arial,sans-serif" font-size="19" font-weight="700" fill="#F7E7C9">primary sources</text><circle cx="460" cy="325" r="25" fill="#FF9BA6"/><path d="M448 325l9 11 18-24" fill="none" stroke="#F7E7C9" stroke-width="7"/><circle cx="270" cy="555" r="100" fill="none" stroke="#FF9BA6" stroke-width="6" stroke-dasharray="12 9"/></g>
<rect x="58" y="700" width="424" height="72" rx="18" fill="#F7E7C9" opacity=".08"/>
<text x="76" y="729" font-family="Arial,sans-serif" font-size="16" fill="#F7E7C9" opacity=".82">BEFORE · target = transformed</text>
<text x="76" y="757" font-family="Arial,sans-serif" font-size="16" font-weight="700" fill="#FF9BA6">AFTER · target = changed-pending-review</text>
<rect x="58" y="795" width="424" height="82" rx="18" fill="#F7E7C9" opacity=".09"/><text x="76" y="815" font-family="Arial,sans-serif" font-size="13" fill="#F7E7C9" opacity=".80">ACTION · checks the primary sources</text><text x="76" y="833" font-family="Arial,sans-serif" font-size="13" fill="#F7E7C9" opacity=".80">CUT · Bind the changed target to an inspectable</text><text x="76" y="851" font-family="Arial,sans-serif" font-size="13" fill="#F7E7C9" opacity=".80">proof object.</text>
<text x="270" y="923" text-anchor="middle" font-family="Arial,sans-serif" font-size="14" fill="#F7E7C9" opacity=".48">ORIGINAL LOCAL PREVIS · EXTERNAL PROVIDER NOT RUN</text>
</svg>